<svg xmlns="http://www.w3.org/2000/svg" xmlns:xlink="http://www.w3.org/1999/xlink" width="500" zoomAndPan="magnify" viewBox="0 0 375 374.999991" height="500" preserveAspectRatio="xMidYMid meet" version="1.0"><defs><g/></defs><path fill="#21cf39" d="M 174.804688 182.992188 C 171.773438 176.011719 167.269531 162.425781 171.691406 147.921875 C 178.953125 124.121094 207.429688 107.054688 241.703125 109.265625 C 246.253906 138.300781 235.039062 165.503906 213.90625 177.640625 C 199.671875 185.8125 184.925781 184.863281 177.941406 183.886719 C 185.089844 178.46875 193.117188 171.503906 201.140625 162.6875 C 213.527344 149.082031 221.792969 135.578125 227.265625 124.804688 C 219.40625 135.769531 209.960938 147.613281 198.675781 159.714844 C 190.53125 168.449219 182.488281 176.179688 174.804688 182.992188 Z M 174.804688 182.992188 " fill-opacity="1" fill-rule="nonzero"/><path fill="#21cf39" d="M 165.667969 183.75 C 160.320312 185.367188 150.023438 187.492188 139.820312 183.03125 C 123.078125 175.707031 113.054688 153.480469 117.589844 128.667969 C 139.15625 127.820312 158.042969 138.320312 165.09375 154.769531 C 169.84375 165.851562 167.894531 176.523438 166.585938 181.539062 C 163.242188 175.859375 158.847656 169.410156 153.101562 162.804688 C 144.230469 152.613281 135.085938 145.429688 127.695312 140.523438 C 135.023438 147.191406 142.855469 155.089844 150.722656 164.351562 C 156.398438 171.039062 161.351562 177.5625 165.667969 183.75 Z M 165.667969 183.75 " fill-opacity="1" fill-rule="nonzero"/><g fill="#ffffff" fill-opacity="1"><g transform="translate(34.550483, 236.130937)"><g><path d="M 22.078125 -36.09375 L 7.71875 -2.328125 C 7.40625 -1.484375 6.925781 -0.828125 6.28125 -0.359375 C 5.632812 0.0976562 4.9375 0.328125 4.1875 0.328125 C 2.988281 0.328125 2.101562 0 1.53125 -0.65625 C 0.957031 -1.320312 0.671875 -2.144531 0.671875 -3.125 C 0.671875 -3.519531 0.734375 -3.941406 0.859375 -4.390625 L 17.421875 -44.140625 C 17.773438 -45.023438 18.316406 -45.710938 19.046875 -46.203125 C 19.773438 -46.691406 20.5625 -46.894531 21.40625 -46.8125 C 22.207031 -46.8125 22.953125 -46.578125 23.640625 -46.109375 C 24.328125 -45.640625 24.820312 -44.984375 25.125 -44.140625 L 41.484375 -5.1875 C 41.703125 -4.613281 41.8125 -4.082031 41.8125 -3.59375 C 41.8125 -2.394531 41.421875 -1.441406 40.640625 -0.734375 C 39.867188 -0.0234375 39.019531 0.328125 38.09375 0.328125 C 37.300781 0.328125 36.582031 0.0859375 35.9375 -0.390625 C 35.289062 -0.878906 34.789062 -1.546875 34.4375 -2.390625 L 20.140625 -35.703125 Z M 9.765625 -10.4375 L 13.4375 -18.078125 L 31.375 -18.078125 L 32.640625 -10.4375 Z M 9.765625 -10.4375 "/></g></g></g><g fill="#ffffff" fill-opacity="1"><g transform="translate(75.56133, 236.130937)"><g><path d="M 8.3125 0 C 7.15625 0 6.203125 -0.382812 5.453125 -1.15625 C 4.703125 -1.9375 4.328125 -2.90625 4.328125 -4.0625 L 4.328125 -31.515625 C 4.328125 -32.671875 4.703125 -33.632812 5.453125 -34.40625 C 6.203125 -35.175781 7.15625 -35.5625 8.3125 -35.5625 C 9.46875 -35.5625 10.421875 -35.175781 11.171875 -34.40625 C 11.921875 -33.632812 12.296875 -32.671875 12.296875 -31.515625 L 12.296875 -25.265625 L 11.828125 -29.71875 C 12.316406 -30.78125 12.945312 -31.722656 13.71875 -32.546875 C 14.5 -33.367188 15.375 -34.054688 16.34375 -34.609375 C 17.320312 -35.160156 18.363281 -35.566406 19.46875 -35.828125 C 20.582031 -36.097656 21.691406 -36.234375 22.796875 -36.234375 C 24.128906 -36.234375 25.25 -35.851562 26.15625 -35.09375 C 27.070312 -34.34375 27.53125 -33.457031 27.53125 -32.4375 C 27.53125 -30.976562 27.148438 -29.925781 26.390625 -29.28125 C 25.640625 -28.644531 24.820312 -28.328125 23.9375 -28.328125 C 23.09375 -28.328125 22.328125 -28.476562 21.640625 -28.78125 C 20.953125 -29.09375 20.164062 -29.25 19.28125 -29.25 C 18.476562 -29.25 17.664062 -29.0625 16.84375 -28.6875 C 16.03125 -28.3125 15.28125 -27.722656 14.59375 -26.921875 C 13.90625 -26.128906 13.347656 -25.144531 12.921875 -23.96875 C 12.503906 -22.789062 12.296875 -21.40625 12.296875 -19.8125 L 12.296875 -4.0625 C 12.296875 -2.90625 11.921875 -1.9375 11.171875 -1.15625 C 10.421875 -0.382812 9.46875 0 8.3125 0 Z M 8.3125 0 "/></g></g></g><g fill="#ffffff" fill-opacity="1"><g transform="translate(102.946087, 236.130937)"><g><path d="M 19.078125 -36.234375 C 20.941406 -36.234375 22.648438 -35.941406 24.203125 -35.359375 C 25.753906 -34.785156 27.09375 -34.054688 28.21875 -33.171875 C 29.351562 -32.285156 30.238281 -31.390625 30.875 -30.484375 C 31.519531 -29.578125 31.84375 -28.8125 31.84375 -28.1875 L 30.125 -27.328125 L 30.125 -32.171875 C 30.125 -33.328125 30.5 -34.289062 31.25 -35.0625 C 32 -35.84375 32.953125 -36.234375 34.109375 -36.234375 C 35.253906 -36.234375 36.203125 -35.851562 36.953125 -35.09375 C 37.710938 -34.34375 38.09375 -33.367188 38.09375 -32.171875 L 38.09375 -2.59375 C 38.09375 1.257812 37.257812 4.347656 35.59375 6.671875 C 33.9375 9.003906 31.753906 10.691406 29.046875 11.734375 C 26.347656 12.773438 23.445312 13.296875 20.34375 13.296875 C 19.457031 13.296875 18.304688 13.179688 16.890625 12.953125 C 15.472656 12.734375 14.117188 12.46875 12.828125 12.15625 C 11.546875 11.851562 10.570312 11.566406 9.90625 11.296875 C 8.570312 10.722656 7.648438 10.003906 7.140625 9.140625 C 6.628906 8.273438 6.53125 7.351562 6.84375 6.375 C 7.25 5.09375 7.894531 4.21875 8.78125 3.75 C 9.664062 3.289062 10.59375 3.238281 11.5625 3.59375 C 12.007812 3.726562 12.742188 3.992188 13.765625 4.390625 C 14.785156 4.785156 15.90625 5.148438 17.125 5.484375 C 18.34375 5.816406 19.414062 5.984375 20.34375 5.984375 C 23.664062 5.984375 26.125 5.316406 27.71875 3.984375 C 29.320312 2.660156 30.125 0.820312 30.125 -1.53125 L 30.125 -7.3125 L 30.921875 -6.71875 C 30.921875 -6.132812 30.617188 -5.429688 30.015625 -4.609375 C 29.421875 -3.796875 28.601562 -2.988281 27.5625 -2.1875 C 26.519531 -1.394531 25.285156 -0.71875 23.859375 -0.15625 C 22.441406 0.394531 20.9375 0.671875 19.34375 0.671875 C 16.195312 0.671875 13.359375 -0.113281 10.828125 -1.6875 C 8.304688 -3.269531 6.3125 -5.441406 4.84375 -8.203125 C 3.382812 -10.972656 2.65625 -14.15625 2.65625 -17.75 C 2.65625 -21.382812 3.382812 -24.585938 4.84375 -27.359375 C 6.3125 -30.128906 8.285156 -32.300781 10.765625 -33.875 C 13.253906 -35.445312 16.023438 -36.234375 19.078125 -36.234375 Z M 20.34375 -28.921875 C 18.351562 -28.921875 16.601562 -28.429688 15.09375 -27.453125 C 13.582031 -26.484375 12.40625 -25.15625 11.5625 -23.46875 C 10.726562 -21.78125 10.3125 -19.875 10.3125 -17.75 C 10.3125 -15.664062 10.726562 -13.78125 11.5625 -12.09375 C 12.40625 -10.414062 13.582031 -9.085938 15.09375 -8.109375 C 16.601562 -7.140625 18.351562 -6.65625 20.34375 -6.65625 C 22.382812 -6.65625 24.15625 -7.140625 25.65625 -8.109375 C 27.164062 -9.085938 28.34375 -10.414062 29.1875 -12.09375 C 30.03125 -13.78125 30.453125 -15.664062 30.453125 -17.75 C 30.453125 -19.875 30.03125 -21.78125 29.1875 -23.46875 C 28.34375 -25.15625 27.164062 -26.484375 25.65625 -27.453125 C 24.15625 -28.429688 22.382812 -28.921875 20.34375 -28.921875 Z M 20.34375 -28.921875 "/></g></g></g><g fill="#ffffff" fill-opacity="1"><g transform="translate(143.890464, 236.130937)"><g><path d="M 11.828125 -4.0625 C 11.828125 -2.90625 11.453125 -1.9375 10.703125 -1.15625 C 9.953125 -0.382812 9 0 7.84375 0 C 6.6875 0 5.734375 -0.382812 4.984375 -1.15625 C 4.234375 -1.9375 3.859375 -2.90625 3.859375 -4.0625 L 3.859375 -31.515625 C 3.859375 -32.671875 4.234375 -33.632812 4.984375 -34.40625 C 5.734375 -35.175781 6.6875 -35.5625 7.84375 -35.5625 C 9 -35.5625 9.953125 -35.175781 10.703125 -34.40625 C 11.453125 -33.632812 11.828125 -32.671875 11.828125 -31.515625 Z M 7.78125 -39.890625 C 6.269531 -39.890625 5.203125 -40.132812 4.578125 -40.625 C 3.960938 -41.113281 3.65625 -41.976562 3.65625 -43.21875 L 3.65625 -44.484375 C 3.65625 -45.765625 4 -46.632812 4.6875 -47.09375 C 5.375 -47.5625 6.425781 -47.796875 7.84375 -47.796875 C 9.394531 -47.796875 10.476562 -47.550781 11.09375 -47.0625 C 11.71875 -46.582031 12.03125 -45.722656 12.03125 -44.484375 L 12.03125 -43.21875 C 12.03125 -41.925781 11.695312 -41.046875 11.03125 -40.578125 C 10.363281 -40.117188 9.28125 -39.890625 7.78125 -39.890625 Z M 7.78125 -39.890625 "/></g></g></g><g fill="#ffffff" fill-opacity="1"><g transform="translate(158.114427, 236.130937)"><g><path d="M 7.375 -16.421875 C 6.226562 -16.421875 5.265625 -16.796875 4.484375 -17.546875 C 3.710938 -18.304688 3.328125 -19.257812 3.328125 -20.40625 C 3.328125 -21.5625 3.710938 -22.503906 4.484375 -23.234375 C 5.265625 -23.960938 6.226562 -24.328125 7.375 -24.328125 L 18.953125 -24.328125 C 20.097656 -24.328125 21.054688 -23.9375 21.828125 -23.15625 C 22.609375 -22.382812 23 -21.425781 23 -20.28125 C 23 -19.164062 22.609375 -18.242188 21.828125 -17.515625 C 21.054688 -16.785156 20.097656 -16.421875 18.953125 -16.421875 Z M 7.375 -16.421875 "/></g></g></g><g fill="#ffffff" fill-opacity="1"><g transform="translate(182.973385, 236.130937)"><g><path d="M 19.953125 0.671875 C 16.847656 0.671875 14.050781 0.285156 11.5625 -0.484375 C 9.082031 -1.265625 6.710938 -2.632812 4.453125 -4.59375 C 3.878906 -5.070312 3.4375 -5.625 3.125 -6.25 C 2.8125 -6.875 2.65625 -7.492188 2.65625 -8.109375 C 2.65625 -9.128906 3.019531 -10.023438 3.75 -10.796875 C 4.488281 -11.578125 5.410156 -11.96875 6.515625 -11.96875 C 7.359375 -11.96875 8.113281 -11.703125 8.78125 -11.171875 C 10.457031 -9.796875 12.125 -8.753906 13.78125 -8.046875 C 15.445312 -7.335938 17.503906 -6.984375 19.953125 -6.984375 C 21.585938 -6.984375 23.09375 -7.238281 24.46875 -7.75 C 25.84375 -8.257812 26.945312 -8.945312 27.78125 -9.8125 C 28.625 -10.675781 29.046875 -11.660156 29.046875 -12.765625 C 29.046875 -14.097656 28.644531 -15.226562 27.84375 -16.15625 C 27.050781 -17.082031 25.832031 -17.867188 24.1875 -18.515625 C 22.550781 -19.160156 20.472656 -19.660156 17.953125 -20.015625 C 15.554688 -20.367188 13.445312 -20.910156 11.625 -21.640625 C 9.8125 -22.367188 8.296875 -23.296875 7.078125 -24.421875 C 5.859375 -25.554688 4.9375 -26.890625 4.3125 -28.421875 C 3.695312 -29.953125 3.390625 -31.671875 3.390625 -33.578125 C 3.390625 -36.453125 4.128906 -38.910156 5.609375 -40.953125 C 7.097656 -42.992188 9.101562 -44.546875 11.625 -45.609375 C 14.15625 -46.671875 16.953125 -47.203125 20.015625 -47.203125 C 22.890625 -47.203125 25.554688 -46.769531 28.015625 -45.90625 C 30.484375 -45.039062 32.492188 -43.941406 34.046875 -42.609375 C 35.328125 -41.597656 35.96875 -40.425781 35.96875 -39.09375 C 35.96875 -38.113281 35.585938 -37.222656 34.828125 -36.421875 C 34.078125 -35.628906 33.191406 -35.234375 32.171875 -35.234375 C 31.515625 -35.234375 30.921875 -35.429688 30.390625 -35.828125 C 29.671875 -36.453125 28.710938 -37.039062 27.515625 -37.59375 C 26.328125 -38.144531 25.066406 -38.609375 23.734375 -38.984375 C 22.398438 -39.367188 21.160156 -39.5625 20.015625 -39.5625 C 18.109375 -39.5625 16.5 -39.316406 15.1875 -38.828125 C 13.882812 -38.335938 12.898438 -37.671875 12.234375 -36.828125 C 11.566406 -35.984375 11.234375 -35.007812 11.234375 -33.90625 C 11.234375 -32.570312 11.617188 -31.472656 12.390625 -30.609375 C 13.171875 -29.742188 14.289062 -29.054688 15.75 -28.546875 C 17.21875 -28.046875 18.972656 -27.59375 21.015625 -27.1875 C 23.671875 -26.695312 26.003906 -26.117188 28.015625 -25.453125 C 30.035156 -24.796875 31.707031 -23.945312 33.03125 -22.90625 C 34.363281 -21.863281 35.363281 -20.554688 36.03125 -18.984375 C 36.695312 -17.410156 37.03125 -15.492188 37.03125 -13.234375 C 37.03125 -10.347656 36.234375 -7.863281 34.640625 -5.78125 C 33.046875 -3.695312 30.953125 -2.097656 28.359375 -0.984375 C 25.765625 0.117188 22.960938 0.671875 19.953125 0.671875 Z M 19.953125 0.671875 "/></g></g></g><g fill="#ffffff" fill-opacity="1"><g transform="translate(221.192552, 236.130937)"><g><path d="M 23 -36.234375 C 26.195312 -36.234375 28.625 -35.546875 30.28125 -34.171875 C 31.945312 -32.796875 33.085938 -30.96875 33.703125 -28.6875 C 34.328125 -26.40625 34.640625 -23.867188 34.640625 -21.078125 L 34.640625 -4.0625 C 34.640625 -2.90625 34.257812 -1.9375 33.5 -1.15625 C 32.75 -0.382812 31.800781 0 30.65625 0 C 29.5 0 28.539062 -0.382812 27.78125 -1.15625 C 27.03125 -1.9375 26.65625 -2.90625 26.65625 -4.0625 L 26.65625 -21.078125 C 26.65625 -22.535156 26.476562 -23.851562 26.125 -25.03125 C 25.769531 -26.207031 25.125 -27.148438 24.1875 -27.859375 C 23.257812 -28.566406 21.9375 -28.921875 20.21875 -28.921875 C 18.53125 -28.921875 17.085938 -28.566406 15.890625 -27.859375 C 14.691406 -27.148438 13.789062 -26.207031 13.1875 -25.03125 C 12.59375 -23.851562 12.296875 -22.535156 12.296875 -21.078125 L 12.296875 -4.0625 C 12.296875 -2.90625 11.921875 -1.9375 11.171875 -1.15625 C 10.421875 -0.382812 9.46875 0 8.3125 0 C 7.15625 0 6.203125 -0.382812 5.453125 -1.15625 C 4.703125 -1.9375 4.328125 -2.90625 4.328125 -4.0625 L 4.328125 -45.140625 C 4.328125 -46.296875 4.703125 -47.257812 5.453125 -48.03125 C 6.203125 -48.8125 7.15625 -49.203125 8.3125 -49.203125 C 9.46875 -49.203125 10.421875 -48.8125 11.171875 -48.03125 C 11.921875 -47.257812 12.296875 -46.296875 12.296875 -45.140625 L 12.296875 -28.65625 L 11.296875 -28.859375 C 11.703125 -29.609375 12.257812 -30.414062 12.96875 -31.28125 C 13.675781 -32.144531 14.539062 -32.953125 15.5625 -33.703125 C 16.582031 -34.460938 17.710938 -35.070312 18.953125 -35.53125 C 20.191406 -36 21.539062 -36.234375 23 -36.234375 Z M 23 -36.234375 "/></g></g></g><g fill="#ffffff" fill-opacity="1"><g transform="translate(258.680556, 236.130937)"><g><path d="M 38.828125 -17.75 C 38.828125 -14.113281 38.015625 -10.910156 36.390625 -8.140625 C 34.773438 -5.367188 32.601562 -3.207031 29.875 -1.65625 C 27.15625 -0.101562 24.113281 0.671875 20.75 0.671875 C 17.375 0.671875 14.320312 -0.101562 11.59375 -1.65625 C 8.875 -3.207031 6.703125 -5.367188 5.078125 -8.140625 C 3.460938 -10.910156 2.65625 -14.113281 2.65625 -17.75 C 2.65625 -21.382812 3.460938 -24.585938 5.078125 -27.359375 C 6.703125 -30.128906 8.875 -32.300781 11.59375 -33.875 C 14.320312 -35.445312 17.375 -36.234375 20.75 -36.234375 C 24.113281 -36.234375 27.15625 -35.445312 29.875 -33.875 C 32.601562 -32.300781 34.773438 -30.128906 36.390625 -27.359375 C 38.015625 -24.585938 38.828125 -21.382812 38.828125 -17.75 Z M 30.84375 -17.75 C 30.84375 -20.007812 30.390625 -21.96875 29.484375 -23.625 C 28.578125 -25.289062 27.359375 -26.585938 25.828125 -27.515625 C 24.296875 -28.453125 22.601562 -28.921875 20.75 -28.921875 C 18.882812 -28.921875 17.1875 -28.453125 15.65625 -27.515625 C 14.125 -26.585938 12.90625 -25.289062 12 -23.625 C 11.09375 -21.96875 10.640625 -20.007812 10.640625 -17.75 C 10.640625 -15.53125 11.09375 -13.585938 12 -11.921875 C 12.90625 -10.265625 14.125 -8.972656 15.65625 -8.046875 C 17.1875 -7.117188 18.882812 -6.65625 20.75 -6.65625 C 22.601562 -6.65625 24.296875 -7.117188 25.828125 -8.046875 C 27.359375 -8.972656 28.578125 -10.265625 29.484375 -11.921875 C 30.390625 -13.585938 30.84375 -15.53125 30.84375 -17.75 Z M 30.84375 -17.75 "/></g></g></g><g fill="#ffffff" fill-opacity="1"><g transform="translate(298.694363, 236.130937)"><g><path d="M 22.734375 -36.234375 C 25.835938 -36.234375 28.617188 -35.445312 31.078125 -33.875 C 33.535156 -32.300781 35.484375 -30.140625 36.921875 -27.390625 C 38.367188 -24.640625 39.09375 -21.445312 39.09375 -17.8125 C 39.09375 -14.175781 38.367188 -10.972656 36.921875 -8.203125 C 35.484375 -5.441406 33.554688 -3.269531 31.140625 -1.6875 C 28.734375 -0.113281 26.019531 0.671875 23 0.671875 C 21.226562 0.671875 19.566406 0.382812 18.015625 -0.1875 C 16.460938 -0.769531 15.097656 -1.503906 13.921875 -2.390625 C 12.753906 -3.273438 11.847656 -4.171875 11.203125 -5.078125 C 10.554688 -5.992188 10.234375 -6.757812 10.234375 -7.375 L 12.296875 -8.25 L 12.296875 9.234375 C 12.296875 10.390625 11.921875 11.351562 11.171875 12.125 C 10.421875 12.90625 9.46875 13.296875 8.3125 13.296875 C 7.15625 13.296875 6.203125 12.914062 5.453125 12.15625 C 4.703125 11.40625 4.328125 10.429688 4.328125 9.234375 L 4.328125 -31.515625 C 4.328125 -32.671875 4.703125 -33.632812 5.453125 -34.40625 C 6.203125 -35.175781 7.15625 -35.5625 8.3125 -35.5625 C 9.46875 -35.5625 10.421875 -35.175781 11.171875 -34.40625 C 11.921875 -33.632812 12.296875 -32.671875 12.296875 -31.515625 L 12.296875 -28.25 L 11.171875 -28.859375 C 11.171875 -29.429688 11.476562 -30.125 12.09375 -30.9375 C 12.71875 -31.757812 13.5625 -32.582031 14.625 -33.40625 C 15.6875 -34.226562 16.914062 -34.90625 18.3125 -35.4375 C 19.707031 -35.96875 21.179688 -36.234375 22.734375 -36.234375 Z M 21.734375 -28.921875 C 19.785156 -28.921875 18.078125 -28.429688 16.609375 -27.453125 C 15.148438 -26.484375 14.007812 -25.164062 13.1875 -23.5 C 12.375 -21.84375 11.96875 -19.945312 11.96875 -17.8125 C 11.96875 -15.726562 12.375 -13.832031 13.1875 -12.125 C 14.007812 -10.425781 15.148438 -9.085938 16.609375 -8.109375 C 18.078125 -7.140625 19.785156 -6.65625 21.734375 -6.65625 C 23.691406 -6.65625 25.390625 -7.140625 26.828125 -8.109375 C 28.265625 -9.085938 29.394531 -10.425781 30.21875 -12.125 C 31.039062 -13.832031 31.453125 -15.726562 31.453125 -17.8125 C 31.453125 -19.945312 31.039062 -21.84375 30.21875 -23.5 C 29.394531 -25.164062 28.265625 -26.484375 26.828125 -27.453125 C 25.390625 -28.429688 23.691406 -28.921875 21.734375 -28.921875 Z M 21.734375 -28.921875 "/></g></g></g></svg>